<mxfile host="app.diagrams.net" agent="Mozilla/5.0 (Windows NT 10.0; Win64; x64) AppleWebKit/537.36 (KHTML, like Gecko) Chrome/140.0.0.0 Safari/537.36 Edg/140.0.0.0" version="28.2.1">
  <diagram name="Page-1" id="v1bLY-IPSHKnFwv2KzjO">
    <mxGraphModel dx="829" dy="1415" grid="1" gridSize="10" guides="1" tooltips="1" connect="1" arrows="1" fold="1" page="1" pageScale="1" pageWidth="827" pageHeight="1169" math="0" shadow="0">
      <root>
        <mxCell id="0" />
        <mxCell id="1" parent="0" />
        <mxCell id="7DrCg6noJinfTTKzfHnG-5" value="" style="edgeStyle=orthogonalEdgeStyle;rounded=0;orthogonalLoop=1;jettySize=auto;html=1;" edge="1" parent="1" source="7DrCg6noJinfTTKzfHnG-1" target="7DrCg6noJinfTTKzfHnG-4">
          <mxGeometry relative="1" as="geometry" />
        </mxCell>
        <mxCell id="7DrCg6noJinfTTKzfHnG-1" value="start" style="html=1;dashed=0;whiteSpace=wrap;shape=mxgraph.dfd.start" vertex="1" parent="1">
          <mxGeometry x="320" y="30" width="80" height="30" as="geometry" />
        </mxCell>
        <mxCell id="7DrCg6noJinfTTKzfHnG-71" value="" style="edgeStyle=orthogonalEdgeStyle;rounded=0;orthogonalLoop=1;jettySize=auto;html=1;" edge="1" parent="1" source="7DrCg6noJinfTTKzfHnG-4" target="7DrCg6noJinfTTKzfHnG-70">
          <mxGeometry relative="1" as="geometry" />
        </mxCell>
        <mxCell id="7DrCg6noJinfTTKzfHnG-4" value="&lt;div style=&quot;&quot;&gt;&lt;span style=&quot;background-color: transparent; color: light-dark(rgb(0, 0, 0), rgb(255, 255, 255));&quot;&gt;กำหนดค่าเงินเดือนพื้นฐาน&amp;nbsp;&lt;/span&gt;&lt;/div&gt;&lt;div style=&quot;&quot;&gt;Junior :20,000&lt;/div&gt;&lt;div style=&quot;&quot;&gt;mid-level :35,000&lt;/div&gt;&lt;div&gt;&lt;div style=&quot;&quot;&gt;&lt;span style=&quot;background-color: transparent; color: light-dark(rgb(0, 0, 0), rgb(255, 255, 255));&quot;&gt;Senior :50,000&lt;/span&gt;&lt;/div&gt;&lt;div style=&quot;&quot;&gt;&lt;br&gt;&lt;/div&gt;&lt;/div&gt;" style="whiteSpace=wrap;html=1;dashed=0;align=center;" vertex="1" parent="1">
          <mxGeometry x="265" y="80" width="190" height="70" as="geometry" />
        </mxCell>
        <mxCell id="7DrCg6noJinfTTKzfHnG-18" value="" style="edgeStyle=orthogonalEdgeStyle;rounded=0;orthogonalLoop=1;jettySize=auto;html=1;" edge="1" parent="1" source="7DrCg6noJinfTTKzfHnG-13" target="7DrCg6noJinfTTKzfHnG-17">
          <mxGeometry relative="1" as="geometry" />
        </mxCell>
        <mxCell id="7DrCg6noJinfTTKzfHnG-21" value="Y" style="edgeLabel;html=1;align=center;verticalAlign=middle;resizable=0;points=[];" vertex="1" connectable="0" parent="7DrCg6noJinfTTKzfHnG-18">
          <mxGeometry x="-0.1667" y="-2" relative="1" as="geometry">
            <mxPoint x="5" y="-2" as="offset" />
          </mxGeometry>
        </mxCell>
        <mxCell id="7DrCg6noJinfTTKzfHnG-20" value="" style="edgeStyle=orthogonalEdgeStyle;rounded=0;orthogonalLoop=1;jettySize=auto;html=1;" edge="1" parent="1" source="7DrCg6noJinfTTKzfHnG-13" target="7DrCg6noJinfTTKzfHnG-19">
          <mxGeometry relative="1" as="geometry" />
        </mxCell>
        <mxCell id="7DrCg6noJinfTTKzfHnG-22" value="N" style="edgeLabel;html=1;align=center;verticalAlign=middle;resizable=0;points=[];" vertex="1" connectable="0" parent="7DrCg6noJinfTTKzfHnG-20">
          <mxGeometry x="0.2" y="1" relative="1" as="geometry">
            <mxPoint x="-1" as="offset" />
          </mxGeometry>
        </mxCell>
        <mxCell id="7DrCg6noJinfTTKzfHnG-13" value="ถ้าทำงานน้อยกว่า 1 ปี" style="rhombus;whiteSpace=wrap;html=1;dashed=0;" vertex="1" parent="1">
          <mxGeometry x="320" y="310" width="80" height="80" as="geometry" />
        </mxCell>
        <mxCell id="7DrCg6noJinfTTKzfHnG-40" style="edgeStyle=orthogonalEdgeStyle;rounded=0;orthogonalLoop=1;jettySize=auto;html=1;entryX=0.5;entryY=0;entryDx=0;entryDy=0;" edge="1" parent="1" source="7DrCg6noJinfTTKzfHnG-17" target="7DrCg6noJinfTTKzfHnG-38">
          <mxGeometry relative="1" as="geometry" />
        </mxCell>
        <mxCell id="7DrCg6noJinfTTKzfHnG-17" value="โบนัส 0 %" style="whiteSpace=wrap;html=1;dashed=0;" vertex="1" parent="1">
          <mxGeometry x="460" y="320" width="120" height="60" as="geometry" />
        </mxCell>
        <mxCell id="7DrCg6noJinfTTKzfHnG-24" value="" style="edgeStyle=orthogonalEdgeStyle;rounded=0;orthogonalLoop=1;jettySize=auto;html=1;" edge="1" parent="1" source="7DrCg6noJinfTTKzfHnG-19" target="7DrCg6noJinfTTKzfHnG-23">
          <mxGeometry relative="1" as="geometry" />
        </mxCell>
        <mxCell id="7DrCg6noJinfTTKzfHnG-25" value="Y" style="edgeLabel;html=1;align=center;verticalAlign=middle;resizable=0;points=[];" vertex="1" connectable="0" parent="7DrCg6noJinfTTKzfHnG-24">
          <mxGeometry x="-0.0644" y="1" relative="1" as="geometry">
            <mxPoint x="2" y="1" as="offset" />
          </mxGeometry>
        </mxCell>
        <mxCell id="7DrCg6noJinfTTKzfHnG-27" value="" style="edgeStyle=orthogonalEdgeStyle;rounded=0;orthogonalLoop=1;jettySize=auto;html=1;" edge="1" parent="1" source="7DrCg6noJinfTTKzfHnG-19" target="7DrCg6noJinfTTKzfHnG-26">
          <mxGeometry relative="1" as="geometry" />
        </mxCell>
        <mxCell id="7DrCg6noJinfTTKzfHnG-28" value="N" style="edgeLabel;html=1;align=center;verticalAlign=middle;resizable=0;points=[];" vertex="1" connectable="0" parent="7DrCg6noJinfTTKzfHnG-27">
          <mxGeometry x="0.3186" y="1" relative="1" as="geometry">
            <mxPoint x="-1" as="offset" />
          </mxGeometry>
        </mxCell>
        <mxCell id="7DrCg6noJinfTTKzfHnG-19" value="ทำงาน 1-3 ปี" style="rhombus;whiteSpace=wrap;html=1;dashed=0;" vertex="1" parent="1">
          <mxGeometry x="320" y="420" width="80" height="80" as="geometry" />
        </mxCell>
        <mxCell id="7DrCg6noJinfTTKzfHnG-39" style="edgeStyle=orthogonalEdgeStyle;rounded=0;orthogonalLoop=1;jettySize=auto;html=1;entryX=0;entryY=0.5;entryDx=0;entryDy=0;" edge="1" parent="1" source="7DrCg6noJinfTTKzfHnG-23" target="7DrCg6noJinfTTKzfHnG-38">
          <mxGeometry relative="1" as="geometry" />
        </mxCell>
        <mxCell id="7DrCg6noJinfTTKzfHnG-23" value="โบนัส 10 %" style="whiteSpace=wrap;html=1;dashed=0;" vertex="1" parent="1">
          <mxGeometry x="460" y="430" width="120" height="60" as="geometry" />
        </mxCell>
        <mxCell id="7DrCg6noJinfTTKzfHnG-30" value="" style="edgeStyle=orthogonalEdgeStyle;rounded=0;orthogonalLoop=1;jettySize=auto;html=1;" edge="1" parent="1" source="7DrCg6noJinfTTKzfHnG-26" target="7DrCg6noJinfTTKzfHnG-29">
          <mxGeometry relative="1" as="geometry" />
        </mxCell>
        <mxCell id="7DrCg6noJinfTTKzfHnG-31" value="Y" style="edgeLabel;html=1;align=center;verticalAlign=middle;resizable=0;points=[];" vertex="1" connectable="0" parent="7DrCg6noJinfTTKzfHnG-30">
          <mxGeometry x="0.0276" y="-1" relative="1" as="geometry">
            <mxPoint as="offset" />
          </mxGeometry>
        </mxCell>
        <mxCell id="7DrCg6noJinfTTKzfHnG-33" value="" style="edgeStyle=orthogonalEdgeStyle;rounded=0;orthogonalLoop=1;jettySize=auto;html=1;" edge="1" parent="1" source="7DrCg6noJinfTTKzfHnG-26" target="7DrCg6noJinfTTKzfHnG-32">
          <mxGeometry relative="1" as="geometry" />
        </mxCell>
        <mxCell id="7DrCg6noJinfTTKzfHnG-36" value="N" style="edgeLabel;html=1;align=center;verticalAlign=middle;resizable=0;points=[];" vertex="1" connectable="0" parent="7DrCg6noJinfTTKzfHnG-33">
          <mxGeometry x="-0.4379" y="-1" relative="1" as="geometry">
            <mxPoint x="1" y="9" as="offset" />
          </mxGeometry>
        </mxCell>
        <mxCell id="7DrCg6noJinfTTKzfHnG-26" value="ทำงาน 4-5 ปี" style="rhombus;whiteSpace=wrap;html=1;dashed=0;" vertex="1" parent="1">
          <mxGeometry x="320" y="530" width="80" height="80" as="geometry" />
        </mxCell>
        <mxCell id="7DrCg6noJinfTTKzfHnG-42" value="" style="edgeStyle=orthogonalEdgeStyle;rounded=0;orthogonalLoop=1;jettySize=auto;html=1;" edge="1" parent="1" source="7DrCg6noJinfTTKzfHnG-29" target="7DrCg6noJinfTTKzfHnG-41">
          <mxGeometry relative="1" as="geometry" />
        </mxCell>
        <mxCell id="7DrCg6noJinfTTKzfHnG-29" value="โบนัส 15 %" style="whiteSpace=wrap;html=1;dashed=0;" vertex="1" parent="1">
          <mxGeometry x="460" y="540" width="120" height="60" as="geometry" />
        </mxCell>
        <mxCell id="7DrCg6noJinfTTKzfHnG-35" value="" style="edgeStyle=orthogonalEdgeStyle;rounded=0;orthogonalLoop=1;jettySize=auto;html=1;" edge="1" parent="1" source="7DrCg6noJinfTTKzfHnG-32" target="7DrCg6noJinfTTKzfHnG-34">
          <mxGeometry relative="1" as="geometry" />
        </mxCell>
        <mxCell id="7DrCg6noJinfTTKzfHnG-37" value="Y" style="edgeLabel;html=1;align=center;verticalAlign=middle;resizable=0;points=[];" vertex="1" connectable="0" parent="7DrCg6noJinfTTKzfHnG-35">
          <mxGeometry x="0.0046" y="-2" relative="1" as="geometry">
            <mxPoint as="offset" />
          </mxGeometry>
        </mxCell>
        <mxCell id="7DrCg6noJinfTTKzfHnG-51" style="edgeStyle=orthogonalEdgeStyle;rounded=0;orthogonalLoop=1;jettySize=auto;html=1;entryX=0;entryY=0.5;entryDx=0;entryDy=0;" edge="1" parent="1" source="7DrCg6noJinfTTKzfHnG-32" target="7DrCg6noJinfTTKzfHnG-48">
          <mxGeometry relative="1" as="geometry">
            <mxPoint x="290" y="280" as="targetPoint" />
            <Array as="points">
              <mxPoint x="360" y="760" />
              <mxPoint x="280" y="760" />
              <mxPoint x="280" y="285" />
            </Array>
          </mxGeometry>
        </mxCell>
        <mxCell id="7DrCg6noJinfTTKzfHnG-53" value="N" style="edgeLabel;html=1;align=center;verticalAlign=middle;resizable=0;points=[];" vertex="1" connectable="0" parent="7DrCg6noJinfTTKzfHnG-51">
          <mxGeometry x="-0.9623" y="1" relative="1" as="geometry">
            <mxPoint as="offset" />
          </mxGeometry>
        </mxCell>
        <mxCell id="7DrCg6noJinfTTKzfHnG-32" value="ทำงาน 5 ปี ขึ้นไป" style="rhombus;whiteSpace=wrap;html=1;dashed=0;" vertex="1" parent="1">
          <mxGeometry x="320" y="650" width="80" height="80" as="geometry" />
        </mxCell>
        <mxCell id="7DrCg6noJinfTTKzfHnG-45" value="" style="edgeStyle=orthogonalEdgeStyle;rounded=0;orthogonalLoop=1;jettySize=auto;html=1;" edge="1" parent="1" source="7DrCg6noJinfTTKzfHnG-34" target="7DrCg6noJinfTTKzfHnG-44">
          <mxGeometry relative="1" as="geometry" />
        </mxCell>
        <mxCell id="7DrCg6noJinfTTKzfHnG-34" value="โบนัส 20 %" style="whiteSpace=wrap;html=1;dashed=0;" vertex="1" parent="1">
          <mxGeometry x="460" y="660" width="120" height="60" as="geometry" />
        </mxCell>
        <mxCell id="7DrCg6noJinfTTKzfHnG-43" value="" style="edgeStyle=orthogonalEdgeStyle;rounded=0;orthogonalLoop=1;jettySize=auto;html=1;" edge="1" parent="1" source="7DrCg6noJinfTTKzfHnG-38" target="7DrCg6noJinfTTKzfHnG-41">
          <mxGeometry relative="1" as="geometry" />
        </mxCell>
        <mxCell id="7DrCg6noJinfTTKzfHnG-38" value="" style="ellipse;whiteSpace=wrap;html=1;aspect=fixed;" vertex="1" parent="1">
          <mxGeometry x="630" y="455" width="10" height="10" as="geometry" />
        </mxCell>
        <mxCell id="7DrCg6noJinfTTKzfHnG-46" value="" style="edgeStyle=orthogonalEdgeStyle;rounded=0;orthogonalLoop=1;jettySize=auto;html=1;" edge="1" parent="1" source="7DrCg6noJinfTTKzfHnG-41" target="7DrCg6noJinfTTKzfHnG-44">
          <mxGeometry relative="1" as="geometry" />
        </mxCell>
        <mxCell id="7DrCg6noJinfTTKzfHnG-41" value="" style="ellipse;whiteSpace=wrap;html=1;aspect=fixed;" vertex="1" parent="1">
          <mxGeometry x="630" y="565" width="10" height="10" as="geometry" />
        </mxCell>
        <mxCell id="7DrCg6noJinfTTKzfHnG-55" style="edgeStyle=orthogonalEdgeStyle;rounded=0;orthogonalLoop=1;jettySize=auto;html=1;entryX=0.5;entryY=0;entryDx=0;entryDy=0;" edge="1" parent="1" source="7DrCg6noJinfTTKzfHnG-44" target="7DrCg6noJinfTTKzfHnG-54">
          <mxGeometry relative="1" as="geometry">
            <Array as="points">
              <mxPoint x="635" y="780" />
              <mxPoint x="360" y="780" />
            </Array>
          </mxGeometry>
        </mxCell>
        <mxCell id="7DrCg6noJinfTTKzfHnG-44" value="" style="ellipse;whiteSpace=wrap;html=1;aspect=fixed;" vertex="1" parent="1">
          <mxGeometry x="630" y="685" width="10" height="10" as="geometry" />
        </mxCell>
        <mxCell id="7DrCg6noJinfTTKzfHnG-50" value="" style="edgeStyle=orthogonalEdgeStyle;rounded=0;orthogonalLoop=1;jettySize=auto;html=1;" edge="1" parent="1" source="7DrCg6noJinfTTKzfHnG-48" target="7DrCg6noJinfTTKzfHnG-13">
          <mxGeometry relative="1" as="geometry" />
        </mxCell>
        <mxCell id="7DrCg6noJinfTTKzfHnG-48" value="" style="ellipse;whiteSpace=wrap;html=1;aspect=fixed;" vertex="1" parent="1">
          <mxGeometry x="355" y="280" width="10" height="10" as="geometry" />
        </mxCell>
        <mxCell id="7DrCg6noJinfTTKzfHnG-59" value="" style="edgeStyle=orthogonalEdgeStyle;rounded=0;orthogonalLoop=1;jettySize=auto;html=1;" edge="1" parent="1" source="7DrCg6noJinfTTKzfHnG-54" target="7DrCg6noJinfTTKzfHnG-58">
          <mxGeometry relative="1" as="geometry" />
        </mxCell>
        <mxCell id="7DrCg6noJinfTTKzfHnG-60" value="Y" style="edgeLabel;html=1;align=center;verticalAlign=middle;resizable=0;points=[];" vertex="1" connectable="0" parent="7DrCg6noJinfTTKzfHnG-59">
          <mxGeometry x="-0.1" y="2" relative="1" as="geometry">
            <mxPoint as="offset" />
          </mxGeometry>
        </mxCell>
        <mxCell id="7DrCg6noJinfTTKzfHnG-62" value="" style="edgeStyle=orthogonalEdgeStyle;rounded=0;orthogonalLoop=1;jettySize=auto;html=1;entryX=0.5;entryY=0;entryDx=0;entryDy=0;" edge="1" parent="1" source="7DrCg6noJinfTTKzfHnG-54" target="7DrCg6noJinfTTKzfHnG-65">
          <mxGeometry relative="1" as="geometry" />
        </mxCell>
        <mxCell id="7DrCg6noJinfTTKzfHnG-63" value="N" style="edgeLabel;html=1;align=center;verticalAlign=middle;resizable=0;points=[];" vertex="1" connectable="0" parent="7DrCg6noJinfTTKzfHnG-62">
          <mxGeometry x="-0.2743" y="-2" relative="1" as="geometry">
            <mxPoint as="offset" />
          </mxGeometry>
        </mxCell>
        <mxCell id="7DrCg6noJinfTTKzfHnG-54" value="ทำโปรเจค มากกว่า 5 ชิ้น" style="rhombus;whiteSpace=wrap;html=1;dashed=0;" vertex="1" parent="1">
          <mxGeometry x="320" y="810" width="80" height="80" as="geometry" />
        </mxCell>
        <mxCell id="7DrCg6noJinfTTKzfHnG-67" style="edgeStyle=orthogonalEdgeStyle;rounded=0;orthogonalLoop=1;jettySize=auto;html=1;entryX=1;entryY=0.5;entryDx=0;entryDy=0;" edge="1" parent="1" source="7DrCg6noJinfTTKzfHnG-58" target="7DrCg6noJinfTTKzfHnG-65">
          <mxGeometry relative="1" as="geometry">
            <Array as="points">
              <mxPoint x="520" y="945" />
            </Array>
          </mxGeometry>
        </mxCell>
        <mxCell id="7DrCg6noJinfTTKzfHnG-58" value="โบนัส 5 %" style="whiteSpace=wrap;html=1;dashed=0;" vertex="1" parent="1">
          <mxGeometry x="460" y="820" width="120" height="60" as="geometry" />
        </mxCell>
        <mxCell id="7DrCg6noJinfTTKzfHnG-69" value="" style="edgeStyle=orthogonalEdgeStyle;rounded=0;orthogonalLoop=1;jettySize=auto;html=1;" edge="1" parent="1" source="7DrCg6noJinfTTKzfHnG-61" target="7DrCg6noJinfTTKzfHnG-68">
          <mxGeometry relative="1" as="geometry" />
        </mxCell>
        <mxCell id="7DrCg6noJinfTTKzfHnG-61" value="ปริ้นค่า ผลรวมเงินเดือน" style="whiteSpace=wrap;html=1;dashed=0;" vertex="1" parent="1">
          <mxGeometry x="300" y="970" width="120" height="60" as="geometry" />
        </mxCell>
        <mxCell id="7DrCg6noJinfTTKzfHnG-66" value="" style="edgeStyle=orthogonalEdgeStyle;rounded=0;orthogonalLoop=1;jettySize=auto;html=1;" edge="1" parent="1" source="7DrCg6noJinfTTKzfHnG-65" target="7DrCg6noJinfTTKzfHnG-61">
          <mxGeometry relative="1" as="geometry" />
        </mxCell>
        <mxCell id="7DrCg6noJinfTTKzfHnG-65" value="" style="ellipse;whiteSpace=wrap;html=1;aspect=fixed;" vertex="1" parent="1">
          <mxGeometry x="355" y="940" width="10" height="10" as="geometry" />
        </mxCell>
        <mxCell id="7DrCg6noJinfTTKzfHnG-68" value="stop" style="html=1;dashed=0;whiteSpace=wrap;shape=mxgraph.dfd.start" vertex="1" parent="1">
          <mxGeometry x="320" y="1080" width="80" height="30" as="geometry" />
        </mxCell>
        <mxCell id="7DrCg6noJinfTTKzfHnG-72" style="edgeStyle=orthogonalEdgeStyle;rounded=0;orthogonalLoop=1;jettySize=auto;html=1;entryX=0.5;entryY=0;entryDx=0;entryDy=0;" edge="1" parent="1" source="7DrCg6noJinfTTKzfHnG-70" target="7DrCg6noJinfTTKzfHnG-48">
          <mxGeometry relative="1" as="geometry" />
        </mxCell>
        <mxCell id="7DrCg6noJinfTTKzfHnG-70" value="รับค่า ตำแหน่ง ปีที่ทำงาน จำนวนโปรเจค ที่ทำ" style="whiteSpace=wrap;html=1;dashed=0;" vertex="1" parent="1">
          <mxGeometry x="300" y="190" width="120" height="60" as="geometry" />
        </mxCell>
      </root>
    </mxGraphModel>
  </diagram>
</mxfile>
